# xmcd
#
# Track frame offsets:
#	150
#	15657
#	34451
#	55461
#	68536
#	89991
#
# Disc length: 1419 seconds
#
# Revision: 1
# Processed by: cddbd v1.5.2PL0 Copyright (c) Steve Scherf et al.
# Submitted via: audiograbber 1.83.01
#
DISCID=52058906
DTITLE=Lana Sprague - Sad aAnd Lonely Lana Sprague
DYEAR=1999
DGENRE=Country
TTITLE0=Tiny Fingers
TTITLE1=Livigg Goodbye
TTITLE2=One Memory At A Time
TTITLE3=Everything That Matters
TTITLE4=Is That All I Get
TTITLE5=Hey Faye
EXTD=
EXTT0=
EXTT1=
EXTT2=
EXTT3=
EXTT4=
EXTT5=
PLAYORDER=
